{"glyphs":{":":{"x_min":0,"x_max":306,"ha":306,"o":"m 97 391 q 97 415 113 431 q 129 447 153 447 q 176 447 193 430 q 210 414 210 391 q 210 368 193 351 q 176 334 153 334 q 129 334 113 351 q 97 367 97 391 z m 97 39 q 97 62 113 79 q 129 96 153 96 q 176 96 193 79 q 210 62 210 39 q 210 16 193 0 q 176 -17 153 -17 q 129 -17 113 -1 q 97 16 97 39 z"},"$":{"x_min":0,"x_max":613,"ha":613,"o":"m 323 48 q 402 55 442 82 q 482 109 482 157 q 482 200 444 226 q 406 252 323 265 z m 272 564 q 208 557 173 531 q 138 504 138 463 q 138 422 169 398 q 201 375 272 363 z m 272 -104 l 272 -1 q 163 7 102 47 q 41 87 41 150 q 41 184 60 205 q 79 226 110 226 q 137 226 154 211 q 171 196 171 173 q 171 146 155 132 q 139 118 107 116 q 123 87 161 71 q 200 55 272 49 l 272 274 q 165 294 111 336 q 57 378 57 442 q 57 511 114 555 q 170 599 272 609 l 272 685 l 323 685 l 323 609 q 420 605 479 566 q 539 526 539 469 q 539 439 521 422 q 503 405 473 405 q 447 405 433 419 q 418 433 418 457 q 418 480 430 493 q 441 505 466 508 q 452 534 416 548 q 380 562 323 563 l 323 351 q 451 329 508 286 q 565 244 565 172 q 565 98 502 52 q 439 7 323 -1 l 323 -104 z"},"?":{"x_min":0,"x_max":502,"ha":502,"o":"m 200 181 l 200 194 q 200 247 214 285 q 228 322 260 354 q 269 363 286 379 q 373 460 373 523 q 373 574 336 606 q 298 637 237 637 q 169 637 126 602 q 83 567 83 513 l 83 510 q 93 517 104 520 q 114 523 125 523 q 149 523 163 509 q 177 496 177 472 q 177 445 160 430 q 143 414 114 414 q 77 414 53 444 q 30 473 30 521 q 30 594 92 643 q 154 692 250 692 q 349 692 409 644 q 469 596 469 519 q 469 471 445 433 q 421 396 336 331 l 333 329 q 251 267 251 185 l 251 181 z m 171 39 q 171 62 187 79 q 204 96 227 96 q 250 96 267 79 q 284 62 284 39 q 284 16 267 0 q 250 -17 227 -17 q 203 -17 187 -1 q 171 16 171 39 z"},"<":{"x_min":0,"x_max":833,"ha":833,"o":"m 704 559 l 704 497 l 216 298 l 704 100 l 704 37 l 129 273 l 129 323 z"},"'":{"x_min":0,"x_max":170,"ha":170,"o":"m 93 422 l 77 422 l 45 645 q 44 649 44 653 q 44 657 44 664 q 44 688 54 701 q 65 714 85 714 q 105 714 116 701 q 127 688 127 665 q 127 661 125 648 q 125 646 125 645 z"},"=":{"x_min":0,"x_max":833,"ha":833,"o":"m 124 233 l 709 233 l 709 176 l 124 176 z m 124 420 l 709 420 l 709 363 l 124 363 z"},"a":{"x_min":0,"x_max":554,"ha":554,"o":"m 348 254 q 323 242 301 233 q 278 224 258 217 l 219 204 q 169 188 147 167 q 125 145 125 113 q 125 81 146 61 q 167 42 203 42 q 272 42 310 83 q 348 125 348 200 z m 354 61 q 314 21 271 2 q 227 -18 178 -18 q 111 -18 71 17 q 30 52 30 110 q 30 163 66 195 q 103 228 193 253 l 272 275 q 317 288 333 304 q 348 321 348 356 q 348 396 318 421 q 288 445 237 445 q 204 445 177 434 q 149 424 126 402 q 148 397 160 384 q 172 371 172 351 q 172 330 156 316 q 141 302 117 302 q 91 302 73 319 q 56 336 56 363 q 56 417 110 453 q 165 490 247 490 q 289 490 326 480 q 362 471 384 454 q 411 434 422 409 q 433 384 433 329 l 433 96 q 433 63 440 50 q 447 37 464 37 q 488 37 498 63 q 507 89 508 160 l 555 160 l 555 149 q 555 61 530 21 q 505 -18 449 -18 q 411 -18 387 1 q 364 21 354 61 z"},"L":{"x_min":0,"x_max":683,"ha":683,"o":"m 28 671 l 358 671 l 358 618 l 308 618 q 264 618 250 606 q 237 595 237 545 l 237 53 l 397 53 q 470 53 509 67 q 549 81 565 112 q 578 137 584 173 q 590 209 590 264 l 590 279 l 642 279 l 642 0 l 28 0 l 28 53 l 69 53 q 112 53 126 65 q 140 77 140 127 l 140 545 q 140 595 126 606 q 113 618 69 618 l 28 618 z"},"3":{"x_min":0,"x_max":613,"ha":613,"o":"m 112 107 q 138 71 176 55 q 214 39 272 39 q 355 39 401 73 q 447 107 447 170 q 447 239 401 270 q 354 301 251 301 l 235 301 l 235 355 l 255 355 q 353 355 394 380 q 435 405 435 462 q 435 513 396 544 q 356 574 290 574 q 250 574 214 562 q 178 549 146 525 q 171 521 183 507 q 195 493 195 467 q 195 443 178 428 q 162 413 135 413 q 106 413 87 432 q 69 451 69 480 q 69 538 137 582 q 206 626 305 626 q 408 626 472 582 q 535 537 535 466 q 535 414 500 379 q 465 344 398 329 q 472 314 512 273 q 553 231 553 171 q 553 87 478 35 q 403 -17 281 -17 q 180 -17 111 31 q 42 78 42 144 q 42 178 63 200 q 83 221 117 221 q 144 221 160 205 q 177 189 177 164 q 177 137 160 123 q 144 108 112 107 z"},";":{"x_min":0,"x_max":306,"ha":306,"o":"m 82 -147 l 82 -112 q 126 -105 151 -78 q 176 -51 176 -9 l 176 3 q 167 -4 156 -8 q 146 -11 137 -11 q 115 -11 101 3 q 87 17 87 39 q 87 65 103 81 q 119 96 146 96 q 181 96 202 71 q 223 45 223 3 q 223 -56 185 -97 q 146 -138 82 -147 z m 97 391 q 97 415 113 431 q 129 447 153 447 q 176 447 193 430 q 210 414 210 391 q 210 368 193 351 q 176 334 153 334 q 129 334 113 351 q 97 367 97 391 z"},"J":{"x_min":0,"x_max":545,"ha":545,"o":"m 317 545 q 317 595 303 606 q 290 618 246 618 l 199 618 l 199 671 l 519 671 l 519 618 l 485 618 q 441 618 427 606 q 414 595 414 545 l 414 211 q 414 86 366 33 q 318 -20 206 -20 q 122 -20 67 22 q 12 65 12 127 q 12 167 33 190 q 55 213 90 213 q 119 213 136 195 q 154 178 154 149 q 154 119 136 101 q 118 84 86 84 q 104 60 130 47 q 157 35 192 35 q 255 35 286 71 q 317 107 317 180 z"},"V":{"x_min":0,"x_max":687,"ha":687,"o":"m 302 0 l 99 555 q 84 593 67 606 q 49 618 12 618 l -19 618 l -19 671 l 306 671 l 306 618 l 244 618 q 216 618 204 611 q 193 604 193 588 q 193 579 195 570 q 196 560 200 550 l 358 119 l 519 549 q 524 561 526 570 q 529 580 529 586 q 529 604 518 611 q 506 618 474 618 l 416 618 l 416 671 l 710 671 l 710 618 l 676 618 q 638 618 620 606 q 603 594 586 550 l 379 0 z"},"\"":{"x_min":0,"x_max":331,"ha":331,"o":"m 253 422 l 238 422 l 206 645 q 206 646 206 648 q 204 659 204 664 q 204 688 215 701 q 226 714 246 714 q 266 714 276 701 q 287 688 287 665 q 287 658 287 654 q 287 649 286 645 z m 93 422 l 77 422 l 46 645 q 45 653 44 658 q 44 662 44 665 q 44 688 55 701 q 65 714 85 714 q 105 714 116 701 q 127 688 127 665 q 127 661 125 648 q 125 646 125 645 z"},"7":{"x_min":0,"x_max":613,"ha":613,"o":"m 257 -5 q 256 2 256 11 q 256 19 256 35 q 256 121 273 186 q 291 251 328 309 q 340 329 398 395 q 456 462 492 517 q 473 508 453 504 q 433 500 411 500 q 376 500 322 514 q 268 529 247 529 q 187 529 159 491 q 131 453 131 370 l 131 355 l 77 355 l 77 609 l 135 609 l 135 537 q 166 579 200 597 q 235 616 280 616 q 321 616 387 591 q 454 566 479 566 q 501 566 516 577 q 530 588 535 609 l 588 609 q 588 559 504 438 q 480 402 467 382 l 463 376 q 387 262 371 196 q 365 172 362 132 q 359 92 359 28 l 359 -5 z"},"S":{"x_min":0,"x_max":630,"ha":630,"o":"m 43 0 l 43 278 l 98 278 q 114 168 180 106 q 247 43 347 43 q 420 43 464 78 q 508 112 508 169 q 508 217 475 244 q 441 271 353 291 l 270 309 q 135 339 90 381 q 45 423 45 505 q 45 590 110 640 q 176 691 287 691 q 342 691 391 673 q 440 654 487 616 l 516 677 l 563 677 l 563 423 l 509 423 q 496 524 439 579 q 382 633 288 633 q 214 633 172 603 q 131 573 131 519 q 131 477 164 451 q 197 425 267 411 l 364 391 q 493 365 546 319 q 599 273 599 190 q 599 97 530 38 q 461 -20 350 -20 q 286 -20 231 3 q 177 26 127 74 l 94 0 z"},"}":{"x_min":0,"x_max":500,"ha":500,"o":"m 87 740 l 92 740 q 197 740 237 704 q 277 668 277 571 l 277 467 q 277 390 305 361 q 333 333 414 325 l 414 296 q 334 290 306 260 q 277 231 277 154 l 277 50 q 277 -47 237 -83 q 197 -119 92 -119 l 87 -119 l 87 -94 q 157 -93 182 -68 q 207 -42 207 34 l 207 104 q 207 214 237 255 q 267 295 347 310 q 267 325 237 365 q 207 406 207 516 l 207 586 q 207 662 182 688 q 156 714 87 715 z"},"Z":{"x_min":0,"x_max":620,"ha":620,"o":"m 27 0 l 27 55 l 458 618 l 267 618 q 170 618 136 576 q 103 535 99 406 l 47 406 l 47 671 l 574 671 l 574 615 l 145 53 l 337 53 q 398 53 438 69 q 478 84 492 115 q 503 139 510 177 q 516 216 520 289 l 574 289 l 574 0 z"},"x":{"x_min":0,"x_max":606,"ha":606,"o":"m 344 253 l 484 94 q 502 73 526 61 q 550 49 574 49 l 589 49 l 589 0 l 315 0 l 315 49 l 360 49 q 377 49 388 54 q 399 59 399 66 q 399 71 396 76 q 394 81 386 90 l 291 198 l 187 87 q 187 86 186 85 q 175 73 175 66 q 175 58 187 53 q 199 49 221 49 l 258 49 l 258 0 l 14 0 l 14 49 l 28 49 q 50 49 75 62 q 101 76 123 99 l 256 241 l 141 367 q 112 399 88 411 q 63 424 34 424 l 19 424 l 19 472 l 276 472 l 276 424 l 244 424 q 229 424 221 420 q 213 417 213 409 q 213 401 228 383 l 229 382 l 308 292 l 402 391 q 406 395 408 400 q 410 405 410 410 q 410 418 402 421 q 393 424 367 424 l 338 424 l 338 472 l 574 472 l 574 424 l 555 424 q 526 424 503 412 q 479 400 453 371 z"},")":{"x_min":0,"x_max":359,"ha":359,"o":"m 22 -156 q 122 -107 174 -4 q 227 100 227 248 q 227 396 174 500 q 122 603 22 652 l 22 690 q 156 640 232 523 q 308 406 308 248 q 308 90 232 -27 q 156 -145 22 -194 z"},"&":{"x_min":0,"x_max":826,"ha":826,"o":"m 467 43 q 423 12 373 -4 q 323 -20 271 -20 q 172 -20 107 38 q 42 96 42 183 q 42 250 86 303 q 130 356 219 398 q 199 445 190 477 q 181 509 181 534 q 181 602 227 646 q 273 691 345 691 q 404 691 444 655 q 484 619 484 565 q 484 510 446 462 q 409 413 337 375 q 386 294 423 242 q 460 190 496 152 q 542 203 566 244 q 591 285 591 311 q 591 334 573 344 q 556 354 516 354 l 489 354 l 489 408 l 783 408 l 783 354 l 758 354 q 723 354 701 341 q 680 327 652 277 l 646 267 q 588 161 536 108 q 563 81 588 67 q 613 54 639 54 q 682 54 705 91 q 728 127 731 202 l 784 202 l 784 198 q 784 90 742 36 q 701 -19 619 -19 q 577 -19 539 -4 q 501 12 467 43 z m 304 434 q 362 466 385 496 q 409 526 409 565 q 409 597 390 616 q 372 636 341 636 q 308 636 289 612 q 269 587 269 545 q 269 520 278 492 q 286 465 304 434 z m 422 90 q 381 134 340 193 q 299 251 251 336 q 193 308 168 275 q 142 242 142 197 q 142 133 186 91 q 229 48 294 48 q 322 48 354 58 q 386 69 422 90 z"},"_":{"x_min":0,"x_max":500,"ha":500,"o":"m 0 -178 l 500 -178 l 500 -236 l 0 -236 z"},"v":{"x_min":0,"x_max":561,"ha":561,"o":"m 77 378 q 64 408 53 416 q 42 423 19 423 l -3 423 l -3 472 l 243 472 l 243 423 l 207 423 q 181 423 173 418 q 164 414 164 401 q 164 396 166 389 q 167 382 173 369 l 289 108 l 399 362 q 406 378 408 387 q 411 396 411 403 q 411 414 401 418 q 391 423 363 423 l 319 423 l 319 472 l 547 472 l 547 423 l 528 423 q 504 423 491 414 q 479 405 461 365 l 298 -5 l 245 -5 z"},"O":{"x_min":0,"x_max":799,"ha":799,"o":"m 148 336 q 148 199 217 118 q 285 36 399 36 q 513 36 581 118 q 650 199 650 336 q 650 473 582 554 q 513 635 399 635 q 285 635 217 554 q 148 473 148 336 z m 39 336 q 39 414 67 481 q 96 548 150 599 q 197 643 262 667 q 327 691 399 691 q 471 691 536 667 q 601 643 648 599 q 703 548 731 481 q 759 415 759 336 q 759 257 731 190 q 703 123 648 72 q 601 28 536 4 q 471 -20 399 -20 q 327 -20 262 4 q 197 28 150 72 q 96 123 67 190 q 39 257 39 336 z"},"(":{"x_min":0,"x_max":359,"ha":359,"o":"m 337 -155 l 337 -193 q 203 -143 127 -26 q 51 91 51 249 q 51 407 127 524 q 203 641 337 691 l 337 653 q 237 604 185 501 q 132 397 132 249 q 132 101 185 -3 q 237 -106 337 -155 z"},"C":{"x_min":0,"x_max":708,"ha":708,"o":"m 598 244 l 658 244 q 648 114 576 47 q 504 -20 376 -20 q 226 -20 132 79 q 39 178 39 338 q 39 412 65 479 q 91 545 139 594 q 186 641 246 666 q 306 691 372 691 q 427 691 479 671 q 530 651 581 610 l 606 671 l 652 671 l 652 410 l 601 410 q 591 511 530 572 q 468 634 378 634 q 278 634 213 550 q 148 467 148 338 q 148 201 213 121 q 277 41 388 41 q 478 41 532 93 q 585 145 598 244 z"},"W":{"x_min":0,"x_max":963,"ha":963,"o":"m 258 0 l 111 516 l 110 519 q 83 618 31 618 l 1 618 l 1 671 l 284 671 l 284 618 l 245 618 q 214 618 203 611 q 192 604 192 585 q 192 580 193 573 q 194 566 197 555 l 316 125 l 455 541 l 446 575 q 439 599 425 608 q 410 618 378 618 l 344 618 l 344 671 l 637 671 l 637 618 l 592 618 q 558 618 548 612 q 537 606 537 589 q 537 583 538 575 q 540 568 542 559 l 674 124 l 794 530 q 799 547 802 563 q 805 579 805 589 q 805 605 794 612 q 783 618 756 618 l 708 618 l 708 671 l 962 671 l 962 618 l 935 618 q 906 618 891 603 q 876 588 860 534 l 699 0 l 621 0 l 484 440 l 336 0 z"},"A":{"x_min":0,"x_max":704,"ha":704,"o":"m 228 278 l 442 278 l 333 565 z m -19 0 l -19 53 l 14 53 q 48 53 64 65 q 81 77 94 111 l 310 671 l 394 671 l 608 115 q 622 77 639 65 q 657 53 691 53 l 719 53 l 719 0 l 401 0 l 401 53 l 455 53 q 491 53 502 59 q 513 65 513 83 q 513 86 511 94 q 509 101 506 110 l 464 225 l 208 225 l 171 131 q 163 109 160 98 q 157 87 157 80 q 157 64 169 59 q 181 53 221 53 l 271 53 l 271 0 z"},"f":{"x_min":0,"x_max":344,"ha":344,"o":"m 118 423 l 25 423 l 25 472 l 118 472 l 118 512 q 118 601 156 645 q 193 689 269 689 q 337 689 377 660 q 418 631 418 584 q 418 557 403 541 q 388 525 363 525 q 341 525 326 539 q 311 553 311 573 q 311 590 322 602 q 332 614 350 618 q 335 632 319 638 q 303 644 283 644 q 240 644 222 615 q 204 586 204 509 l 204 472 l 316 472 l 316 423 l 204 423 l 204 106 q 204 71 217 60 q 229 49 269 49 l 314 49 l 314 0 l 25 0 l 25 49 l 54 49 q 93 49 106 60 q 118 70 118 106 z"},"Q":{"x_min":0,"x_max":827,"ha":827,"o":"m 505 57 q 465 123 434 150 q 402 178 370 178 q 338 178 319 161 q 301 144 301 114 q 301 78 329 57 q 356 35 403 35 q 423 35 448 41 q 473 46 505 57 z m 572 107 q 611 146 630 204 q 650 262 650 336 q 650 473 582 554 q 513 635 399 635 q 285 635 217 554 q 148 473 148 336 q 148 246 176 182 q 203 117 259 77 q 254 90 251 104 q 249 118 249 131 q 249 181 283 212 q 317 242 373 242 q 428 242 476 210 q 523 177 572 107 z m 619 52 q 638 30 656 19 q 674 9 693 9 q 728 9 747 34 q 767 60 774 114 l 824 114 q 817 28 778 -20 q 738 -69 675 -69 q 635 -69 602 -51 q 569 -33 540 5 q 506 -7 472 -13 q 438 -19 404 -19 q 347 -19 297 -6 q 248 6 205 32 q 126 79 83 159 q 39 239 39 336 q 39 415 67 481 q 95 548 150 599 q 197 643 262 667 q 327 691 399 691 q 471 691 536 667 q 601 643 648 599 q 703 548 731 481 q 759 415 759 336 q 759 250 724 179 q 689 108 619 52 z"},"w":{"x_min":0,"x_max":824,"ha":824,"o":"m 239 -5 l 90 372 q 78 404 65 414 q 53 424 29 424 l 11 424 l 11 472 l 240 472 l 240 424 l 207 424 q 188 424 178 418 q 169 412 169 400 q 169 393 175 376 l 176 375 l 280 108 l 383 364 l 376 382 q 367 406 355 415 q 343 424 321 424 l 299 424 l 299 472 l 534 472 l 534 424 l 505 424 q 475 424 466 419 q 457 414 457 401 q 457 395 458 388 q 460 382 463 375 l 566 108 l 670 365 q 674 376 677 387 q 679 397 679 404 q 679 415 669 419 q 659 424 633 424 l 602 424 l 602 472 l 811 472 l 811 424 l 798 424 q 773 424 758 412 q 744 400 730 366 l 583 -5 l 526 -5 l 411 287 l 296 -5 z"},"-":{"x_min":0,"x_max":333,"ha":333,"o":"m 37 202 l 37 276 l 297 276 l 297 202 z"},"E":{"x_min":0,"x_max":745,"ha":745,"o":"m 28 0 l 28 53 l 69 53 q 112 53 126 65 q 140 77 140 127 l 140 545 q 140 595 126 606 q 113 618 69 618 l 28 618 l 28 671 l 664 671 l 664 419 l 612 419 q 612 536 573 577 q 534 618 419 618 l 237 618 l 237 379 l 306 379 q 377 379 396 403 q 414 427 414 508 l 465 508 l 465 179 l 414 179 q 412 273 391 300 q 370 326 305 326 l 237 326 l 237 53 l 432 53 q 538 53 574 96 q 610 140 612 273 l 664 273 l 664 0 z"},"s":{"x_min":0,"x_max":499,"ha":499,"o":"m 40 -4 l 40 194 l 92 194 q 104 123 154 81 q 203 38 272 38 q 323 38 352 59 q 382 80 382 115 q 382 143 360 161 q 338 179 293 187 l 203 204 q 126 219 86 257 q 46 295 46 352 q 46 413 94 450 q 143 488 223 488 q 263 488 302 474 q 340 461 375 435 l 395 478 l 440 478 l 440 294 l 389 294 q 376 363 334 399 q 292 436 225 436 q 182 436 156 417 q 129 397 129 367 q 129 338 150 320 q 171 302 213 294 l 307 276 q 383 262 424 226 q 464 190 464 136 q 464 65 413 24 q 362 -16 272 -16 q 226 -16 187 0 q 147 15 112 47 l 91 -4 z"},">":{"x_min":0,"x_max":833,"ha":833,"o":"m 129 559 l 704 323 l 704 273 l 129 37 l 129 100 l 617 298 l 129 497 z"},"l":{"x_min":0,"x_max":319,"ha":319,"o":"m 116 566 q 116 601 104 612 q 91 623 51 623 l 23 623 l 23 671 l 203 671 l 203 106 q 203 70 216 60 q 228 49 267 49 l 297 49 l 297 0 l 23 0 l 23 49 l 51 49 q 91 49 104 60 q 116 71 116 106 z"},"8":{"x_min":0,"x_max":613,"ha":613,"o":"m 341 356 q 401 372 430 402 q 460 432 460 477 q 460 522 419 548 q 378 574 307 574 q 239 574 198 547 q 156 519 156 476 q 156 441 178 418 q 200 396 249 382 z m 265 283 q 197 270 161 237 q 125 205 125 157 q 125 104 173 72 q 222 39 301 39 q 382 39 429 68 q 476 97 476 146 q 476 187 448 212 q 419 238 350 258 z m 185 309 q 126 333 97 369 q 68 404 68 453 q 68 529 134 577 q 201 626 307 626 q 411 626 477 583 q 543 539 543 473 q 543 426 512 392 q 480 357 415 334 q 494 304 531 263 q 569 222 569 165 q 569 86 494 35 q 420 -17 303 -17 q 185 -17 113 29 q 41 76 41 150 q 41 206 76 244 q 111 283 185 309 z"},"\\":{"x_min":0,"x_max":278,"ha":278,"o":"m -22 691 l 33 691 l 278 -93 l 222 -93 z"},"e":{"x_min":0,"x_max":529,"ha":529,"o":"m 400 281 q 398 362 366 401 q 333 440 267 440 q 206 440 171 399 q 136 358 131 281 z m 425 155 l 484 155 q 467 68 413 25 q 359 -18 269 -18 q 162 -18 96 52 q 31 122 31 236 q 31 351 96 420 q 162 490 269 490 q 380 490 439 423 q 498 356 499 228 l 128 228 l 128 221 q 128 132 166 86 q 203 39 275 39 q 333 39 370 68 q 408 98 425 155 z"},"b":{"x_min":0,"x_max":591,"ha":591,"o":"m 170 239 q 170 149 211 96 q 252 44 322 44 q 386 44 422 94 q 457 145 457 236 q 457 328 421 379 q 386 430 321 430 q 252 430 211 378 q 170 326 170 239 z m 128 -6 l 84 -6 l 84 566 q 84 602 72 612 q 59 623 20 623 l 0 623 l 0 671 l 170 671 l 170 393 q 201 442 242 466 q 283 489 338 489 q 435 489 494 419 q 554 349 554 236 q 554 124 495 54 q 436 -15 340 -15 q 285 -15 243 9 q 201 33 170 82 z"},"%":{"x_min":0,"x_max":962,"ha":962,"o":"m 639 175 q 639 111 667 73 q 695 34 741 34 q 788 34 815 72 q 842 109 842 175 q 842 241 815 280 q 788 318 741 318 q 695 318 667 279 q 639 240 639 175 z m 553 176 q 553 262 605 315 q 658 369 741 369 q 824 369 876 315 q 928 262 928 176 q 928 90 876 37 q 824 -17 741 -17 q 659 -17 606 37 q 553 91 553 176 z m 325 -17 l 262 -17 l 637 626 l 700 626 z m 120 433 q 120 369 148 330 q 176 291 222 291 q 269 291 296 329 q 323 367 323 433 q 323 499 296 537 q 269 575 222 575 q 175 575 148 537 q 120 498 120 433 z m 34 433 q 34 519 86 572 q 139 626 222 626 q 305 626 357 572 q 409 519 409 433 q 409 347 357 294 q 305 240 222 240 q 140 240 87 294 q 34 348 34 433 z"},"m":{"x_min":0,"x_max":932,"ha":932,"o":"m 30 0 l 30 49 l 58 49 q 98 49 110 60 q 123 71 123 106 l 123 366 q 123 402 110 413 q 97 424 58 424 l 30 424 l 30 472 l 207 472 l 207 400 q 239 443 278 464 q 317 486 362 486 q 418 486 454 462 q 490 439 505 392 q 544 440 584 463 q 625 486 670 486 q 714 486 745 472 q 776 458 796 429 q 810 409 816 377 q 822 346 822 270 l 822 106 q 822 71 834 60 q 847 49 887 49 l 911 49 l 911 0 l 655 0 l 655 49 l 674 49 q 713 49 726 60 q 738 70 738 106 l 738 283 q 738 370 718 401 q 698 432 648 432 q 587 432 551 388 q 515 345 515 270 l 515 106 q 515 70 528 60 q 540 49 579 49 l 598 49 l 598 0 l 347 0 l 347 49 l 366 49 q 406 49 418 60 q 431 71 431 106 l 431 283 q 431 369 411 401 q 391 432 340 432 q 280 432 243 388 q 207 345 207 270 l 207 106 q 207 71 220 60 q 232 49 272 49 l 290 49 l 290 0 z"},"#":{"x_min":0,"x_max":769,"ha":769,"o":"m 342 424 l 293 284 l 434 284 l 484 424 z m 380 711 l 445 711 l 363 481 l 503 481 l 585 711 l 649 711 l 568 481 l 718 481 l 698 424 l 547 424 l 498 284 l 660 284 l 639 228 l 478 228 l 397 -1 l 332 -1 l 413 228 l 273 228 l 192 -1 l 128 -1 l 209 228 l 51 228 l 72 284 l 229 284 l 278 424 l 108 424 l 129 481 l 299 481 z"},",":{"x_min":0,"x_max":306,"ha":306,"o":"m 82 -147 l 82 -112 q 126 -105 151 -78 q 176 -51 176 -9 l 176 3 q 167 -4 156 -8 q 146 -11 137 -11 q 115 -11 101 3 q 87 17 87 39 q 87 65 103 81 q 119 96 146 96 q 181 96 202 71 q 223 45 223 3 q 223 -56 185 -97 q 146 -138 82 -147 z"},"n":{"x_min":0,"x_max":655,"ha":655,"o":"m 30 0 l 30 49 l 58 49 q 98 49 110 60 q 123 71 123 106 l 123 366 q 123 402 110 413 q 97 424 58 424 l 30 424 l 30 472 l 209 472 l 209 391 q 238 438 282 462 q 326 486 383 486 q 428 486 461 471 q 494 456 516 426 q 532 404 538 372 q 545 340 545 270 l 545 106 q 545 71 558 60 q 570 49 610 49 l 632 49 l 632 0 l 362 0 l 362 49 l 395 49 q 434 49 447 60 q 459 70 459 106 l 459 283 q 459 365 436 399 q 414 432 360 432 q 292 432 250 388 q 209 344 209 270 l 209 106 q 209 70 221 60 q 234 49 273 49 l 306 49 l 306 0 z"},"h":{"x_min":0,"x_max":649,"ha":649,"o":"m 117 566 q 117 602 105 612 q 92 623 53 623 l 30 623 l 30 671 l 203 671 l 203 391 q 232 438 276 462 q 320 486 377 486 q 422 486 455 471 q 488 456 510 426 q 526 404 532 372 q 539 340 539 270 l 539 106 q 539 71 552 60 q 564 49 604 49 l 626 49 l 626 0 l 357 0 l 357 49 l 389 49 q 429 49 441 60 q 454 71 454 106 l 454 283 q 454 365 431 398 q 408 432 354 432 q 286 432 245 388 q 203 344 203 270 l 203 106 q 203 70 216 60 q 228 49 267 49 l 300 49 l 300 0 l 30 0 l 30 49 l 53 49 q 92 49 105 60 q 117 70 117 106 z"},"z":{"x_min":0,"x_max":499,"ha":499,"o":"m 24 0 l 24 50 l 345 423 l 226 423 q 164 423 143 415 q 123 408 111 389 q 102 373 96 347 q 91 321 88 274 l 40 274 l 40 472 l 451 472 l 451 423 l 132 50 l 260 50 q 324 50 352 59 q 381 69 392 91 q 400 107 404 132 q 409 157 412 214 l 461 214 l 461 0 z"},"B":{"x_min":0,"x_max":722,"ha":722,"o":"m 237 377 l 376 377 q 458 377 502 409 q 546 441 546 502 q 546 559 505 588 q 464 618 385 618 l 237 618 z m 237 53 l 376 53 q 470 53 518 88 q 567 123 567 189 q 567 257 520 291 q 473 324 376 324 l 237 324 z m 28 0 l 28 53 l 69 53 q 112 53 126 65 q 140 77 140 127 l 140 545 q 140 595 126 606 q 113 618 69 618 l 28 618 l 28 671 l 393 671 q 516 671 581 629 q 646 587 646 509 q 646 447 606 409 q 566 371 485 354 q 575 343 621 299 q 668 256 668 184 q 668 93 594 47 q 521 0 376 0 z"},"K":{"x_min":0,"x_max":768,"ha":768,"o":"m 237 127 q 237 77 251 65 q 265 53 308 53 l 358 53 l 358 0 l 28 0 l 28 53 l 69 53 q 112 53 126 65 q 140 77 140 127 l 140 545 q 140 595 126 606 q 113 618 69 618 l 28 618 l 28 671 l 358 671 l 358 618 l 308 618 q 264 618 250 606 q 237 595 237 545 l 237 320 l 517 569 q 526 577 530 584 q 534 591 534 598 q 534 608 522 613 q 510 618 484 618 l 434 618 l 434 671 l 770 671 l 770 618 l 729 618 q 694 618 657 599 q 620 580 575 539 l 406 387 l 658 112 q 691 76 716 64 q 741 53 775 53 l 805 53 l 805 0 l 441 0 l 441 53 l 518 53 q 538 53 547 58 q 557 63 557 74 q 557 84 533 110 q 526 118 522 122 l 335 325 l 237 238 z"},"R":{"x_min":0,"x_max":775,"ha":775,"o":"m 237 376 l 366 376 q 470 376 518 407 q 566 439 566 506 q 566 564 521 591 q 475 618 375 618 l 237 618 z m 237 127 q 237 77 251 65 q 265 53 308 53 l 358 53 l 358 0 l 28 0 l 28 53 l 69 53 q 112 53 126 65 q 140 77 140 127 l 140 545 q 140 595 126 606 q 113 618 69 618 l 28 618 l 28 671 l 375 671 q 531 671 600 632 q 668 592 668 504 q 668 436 622 396 q 576 355 487 344 q 555 331 587 293 q 620 256 624 189 q 625 166 626 129 q 628 45 661 45 q 680 45 688 67 q 695 88 698 164 l 746 164 l 746 153 q 746 62 719 21 q 692 -20 634 -20 q 583 -20 557 8 q 530 36 528 92 l 524 175 q 521 251 483 287 q 445 322 366 322 l 237 322 z"},"T":{"x_min":0,"x_max":671,"ha":671,"o":"m 28 408 l 28 671 l 644 671 l 644 408 l 592 408 q 590 528 552 573 q 514 618 415 618 l 384 618 l 384 127 q 384 77 398 65 q 412 53 455 53 l 518 53 l 518 0 l 153 0 l 153 53 l 216 53 q 259 53 273 65 q 287 77 287 127 l 287 618 l 256 618 q 157 618 119 573 q 82 529 79 408 z"},"P":{"x_min":0,"x_max":683,"ha":683,"o":"m 237 357 l 348 357 q 447 357 495 389 q 543 421 543 487 q 543 558 498 588 q 453 618 342 618 l 237 618 z m 237 127 q 237 77 251 65 q 265 53 308 53 l 358 53 l 358 0 l 28 0 l 28 53 l 69 53 q 112 53 126 65 q 140 77 140 127 l 140 545 q 140 595 126 606 q 113 618 69 618 l 28 618 l 28 671 l 340 671 q 505 671 575 629 q 645 587 645 490 q 645 439 625 401 q 604 363 564 338 q 534 320 485 312 q 437 304 348 304 l 237 304 z"},"|":{"x_min":0,"x_max":500,"ha":500,"o":"m 219 764 l 281 764 l 281 -236 l 219 -236 z"},"t":{"x_min":0,"x_max":404,"ha":404,"o":"m 101 96 l 101 423 l 17 423 l 17 472 q 73 475 103 521 q 133 566 140 659 l 187 659 l 187 472 l 331 472 l 331 423 l 187 423 l 187 96 q 187 68 199 54 q 210 41 235 41 q 276 41 292 73 q 308 104 308 193 l 354 193 l 354 182 q 354 77 322 30 q 290 -17 219 -17 q 165 -17 133 14 q 101 44 101 96 z"},"M":{"x_min":0,"x_max":950,"ha":950,"o":"m 138 544 q 138 594 124 606 q 110 618 67 618 l 28 618 l 28 671 l 273 671 l 477 145 l 688 671 l 922 671 l 922 618 l 881 618 q 837 618 824 606 q 810 594 810 544 l 810 127 q 810 77 824 65 q 837 53 881 53 l 922 53 l 922 0 l 597 0 l 597 53 l 644 53 q 688 53 701 65 q 715 77 715 127 l 715 590 l 479 0 l 441 0 l 205 604 l 205 127 q 205 77 219 65 q 232 53 276 53 l 321 53 l 321 0 l 28 0 l 28 53 l 67 53 q 110 53 124 65 q 138 77 138 127 z"},"g":{"x_min":0,"x_max":651,"ha":651,"o":"m 262 -20 q 185 -20 146 -37 q 108 -55 108 -90 q 108 -126 147 -146 q 186 -165 260 -165 q 371 -165 424 -146 q 478 -126 478 -86 q 478 -50 444 -36 q 410 -21 321 -21 z m 164 315 q 164 247 193 214 q 222 181 282 181 q 342 181 374 214 q 405 247 405 310 q 405 374 374 408 q 342 442 284 442 q 228 442 196 408 q 164 375 164 315 z m 128 -5 q 90 6 71 27 q 52 48 52 79 q 52 108 71 131 q 90 154 135 177 q 103 204 87 237 q 71 271 71 311 q 71 392 128 441 q 185 490 279 490 q 327 490 369 476 q 411 462 447 435 q 473 463 499 476 q 524 489 555 489 q 597 489 623 465 q 648 441 648 401 q 648 371 632 352 q 616 333 590 333 q 568 333 554 347 q 539 361 539 382 q 539 402 552 415 q 565 427 588 429 q 581 439 573 444 q 564 448 553 448 q 530 448 510 436 q 490 424 472 399 q 485 378 492 356 q 498 334 498 309 q 498 226 441 177 q 384 129 285 129 q 249 129 214 138 q 178 148 177 148 q 158 148 142 133 q 126 118 126 99 q 126 78 146 69 q 166 60 212 60 l 367 60 q 458 60 507 27 q 555 -6 555 -69 q 555 -143 487 -179 q 418 -215 277 -215 q 160 -215 95 -184 q 31 -152 31 -96 q 31 -63 57 -39 q 83 -15 128 -5 z"},"j":{"x_min":0,"x_max":319,"ha":319,"o":"m 105 622 q 105 646 121 662 q 138 679 161 679 q 184 679 201 662 q 218 645 218 622 q 218 599 201 583 q 185 566 161 566 q 137 566 121 582 q 105 599 105 622 z m 132 -69 l 132 362 q 132 407 121 416 q 111 424 70 424 l 39 424 l 39 472 l 218 472 l 218 -45 q 218 -130 180 -172 q 142 -215 65 -215 q 5 -215 -32 -186 q -69 -158 -69 -113 q -69 -85 -52 -67 q -36 -50 -9 -50 q 15 -50 30 -64 q 45 -79 45 -102 q 45 -121 33 -132 q 21 -144 -1 -148 q 11 -158 25 -163 q 39 -168 55 -168 q 96 -168 114 -146 q 132 -123 132 -69 z"},"i":{"x_min":0,"x_max":332,"ha":332,"o":"m 32 0 l 32 49 l 64 49 q 104 49 116 60 q 129 71 129 106 l 129 366 q 129 402 116 413 q 103 424 64 424 l 32 424 l 32 472 l 216 472 l 216 106 q 216 71 229 60 q 241 49 281 49 l 306 49 l 306 0 z m 103 622 q 103 646 119 662 q 135 679 159 679 q 182 679 199 662 q 216 645 216 622 q 216 599 199 583 q 183 566 159 566 q 135 566 119 582 q 103 599 103 622 z"},"y":{"x_min":0,"x_max":571,"ha":571,"o":"m 255 -3 l 92 377 q 80 404 66 414 q 52 424 26 424 l 0 424 l 0 472 l 256 472 l 256 424 l 212 424 q 194 424 186 419 q 178 415 178 404 q 178 398 180 389 q 183 380 187 370 l 300 103 l 415 375 q 418 382 419 388 q 421 393 421 397 q 421 413 411 418 q 401 424 372 424 l 331 424 l 331 472 l 571 472 l 571 424 l 541 424 q 519 424 505 412 q 491 401 474 361 l 334 39 l 329 27 q 224 -215 109 -215 q 59 -215 26 -183 q -7 -151 -7 -104 q -7 -72 12 -51 q 32 -30 61 -30 q 84 -30 100 -45 q 115 -61 115 -84 q 115 -108 100 -120 q 85 -132 56 -133 q 67 -149 81 -157 q 95 -165 114 -165 q 153 -165 185 -129 q 217 -94 255 -3 z"},"@":{"x_min":0,"x_max":986,"ha":986,"o":"m 581 164 q 551 112 513 87 q 476 61 430 61 q 369 61 332 106 q 295 151 295 225 q 295 278 319 331 q 343 383 386 425 q 418 456 457 474 q 495 491 532 491 q 575 491 602 467 q 629 443 640 396 l 666 484 l 736 484 l 653 186 q 653 185 652 184 q 644 155 644 133 q 644 110 656 96 q 669 83 690 83 q 707 83 729 92 q 750 100 770 115 q 830 159 861 228 q 893 297 893 382 q 893 450 869 505 q 844 560 794 604 q 750 643 688 664 q 627 685 558 685 q 467 685 391 656 q 316 628 257 571 q 193 509 161 427 q 128 346 128 247 q 128 162 156 98 q 184 35 244 -16 q 300 -63 372 -88 q 443 -112 528 -112 q 607 -112 683 -86 q 758 -61 827 -11 l 842 -29 q 770 -83 689 -110 q 608 -137 522 -137 q 431 -137 355 -115 q 279 -92 221 -47 q 147 8 109 87 q 71 166 71 262 q 71 362 113 448 q 155 535 235 601 q 299 655 377 682 q 455 709 545 709 q 714 709 815 618 q 916 526 916 374 q 916 297 888 229 q 859 161 808 114 q 780 88 748 75 q 715 61 682 61 q 635 61 609 87 q 584 112 581 164 z m 536 471 q 510 471 488 456 q 466 441 443 407 q 408 354 387 293 q 366 231 366 183 q 366 138 386 111 q 406 85 439 85 q 471 85 500 107 q 530 128 557 172 q 585 218 602 271 q 618 324 618 367 q 618 413 595 442 q 572 471 536 471 z"},".":{"x_min":0,"x_max":306,"ha":306,"o":"m 97 39 q 97 62 113 79 q 129 96 153 96 q 176 96 193 79 q 210 62 210 39 q 210 16 193 0 q 176 -17 153 -17 q 129 -17 113 -1 q 97 16 97 39 z"},"p":{"x_min":0,"x_max":609,"ha":609,"o":"m 182 233 q 182 146 223 94 q 264 42 333 42 q 398 42 434 93 q 469 144 469 236 q 469 328 434 378 q 398 429 334 429 q 264 429 223 376 q 182 323 182 233 z m 97 -109 l 97 366 q 97 402 84 413 q 71 424 32 424 l 10 424 l 10 472 l 182 472 l 182 391 q 212 439 255 463 q 297 487 352 487 q 448 487 507 418 q 566 349 566 236 q 566 123 506 53 q 446 -17 350 -17 q 295 -17 254 6 q 213 30 182 79 l 182 -109 q 182 -145 195 -156 q 208 -167 247 -167 l 279 -167 l 279 -215 l 10 -215 l 10 -167 l 32 -167 q 71 -167 84 -156 q 97 -145 97 -109 z"},"X":{"x_min":0,"x_max":741,"ha":741,"o":"m 0 0 l 0 53 l 25 53 q 56 53 89 75 q 123 97 157 139 l 312 332 l 156 540 q 123 584 97 601 q 71 618 41 618 l 14 618 l 14 671 l 332 671 l 332 618 l 294 618 q 270 618 257 612 q 245 606 245 595 q 245 588 249 580 q 252 572 259 563 l 375 410 l 495 552 l 498 556 q 521 583 521 600 q 521 608 509 613 q 498 618 477 618 l 430 618 l 430 671 l 718 671 l 718 618 l 684 618 q 653 618 625 601 q 598 584 568 546 l 416 355 l 581 131 q 609 93 644 73 q 678 53 714 53 l 741 53 l 741 0 l 395 0 l 395 53 l 430 53 q 460 53 478 59 q 495 64 495 74 q 495 81 492 88 q 490 95 484 103 l 351 277 l 215 109 q 206 98 203 92 q 200 86 200 80 q 200 66 212 60 q 224 53 250 53 l 294 53 l 294 0 z"},"*":{"x_min":0,"x_max":500,"ha":500,"o":"m 257 472 l 257 469 q 257 429 277 383 q 297 337 297 325 q 297 304 284 292 q 271 279 250 279 q 228 279 215 291 q 202 304 202 325 q 202 338 222 382 q 242 427 242 466 l 242 473 q 239 471 231 465 q 196 440 176 412 l 174 409 q 137 356 108 356 q 92 356 77 373 q 63 390 63 409 q 63 428 78 441 q 94 455 116 456 q 121 457 130 457 q 198 462 234 486 q 192 511 129 515 q 124 515 120 515 q 94 518 78 530 q 63 543 63 562 q 63 582 77 599 q 92 615 109 615 q 137 615 167 570 q 172 563 175 559 q 188 540 204 526 q 220 512 243 498 l 243 501 q 243 541 223 587 q 203 634 203 646 q 203 667 216 679 q 229 691 250 691 q 272 691 285 679 q 298 667 298 646 q 298 633 278 588 q 258 543 258 504 l 258 497 q 261 500 268 504 q 304 530 324 558 q 326 561 329 564 q 364 614 392 614 q 409 614 423 598 q 437 582 437 562 q 437 544 421 530 q 406 517 384 515 q 380 515 373 514 q 302 509 266 484 q 307 459 367 457 q 375 456 378 456 q 406 454 421 441 q 437 428 437 408 q 437 389 423 372 q 408 356 391 356 q 363 356 333 401 q 328 408 325 412 q 312 430 297 444 q 282 458 257 472 z"},"Y":{"x_min":0,"x_max":637,"ha":637,"o":"m 269 265 l 92 553 q 72 586 51 602 q 29 618 5 618 l -24 618 l -24 671 l 284 671 l 284 618 l 219 618 q 202 618 193 613 q 184 608 184 598 q 184 589 188 579 q 191 569 198 558 l 334 333 l 480 568 q 486 578 489 586 q 492 594 492 600 q 492 608 482 613 q 473 618 457 618 l 389 618 l 389 671 l 662 671 l 662 618 l 638 618 q 608 618 586 601 q 563 584 533 535 l 366 265 l 366 127 q 366 77 380 65 q 394 53 437 53 l 500 53 l 500 0 l 135 0 l 135 53 l 198 53 q 242 53 255 65 q 269 77 269 127 z"},"c":{"x_min":0,"x_max":513,"ha":513,"o":"m 427 176 l 485 176 q 471 80 417 31 q 362 -18 270 -18 q 162 -18 96 50 q 31 119 31 233 q 31 346 102 418 q 173 490 283 490 q 372 490 431 447 q 490 403 490 341 q 490 308 472 288 q 454 268 425 268 q 398 268 383 282 q 367 296 367 320 q 367 344 380 357 q 393 370 422 375 q 405 408 372 425 q 339 441 290 441 q 214 441 171 386 q 128 331 128 233 q 128 144 168 92 q 208 41 279 41 q 338 41 376 75 q 414 109 427 176 z"},"!":{"x_min":0,"x_max":306,"ha":306,"o":"m 131 182 q 128 320 113 463 q 97 606 97 614 q 97 652 111 671 q 125 691 153 691 q 181 691 195 671 q 210 651 210 614 q 210 606 194 463 q 178 320 175 182 z m 97 39 q 97 62 113 79 q 129 96 153 96 q 176 96 193 79 q 210 62 210 39 q 210 16 193 0 q 176 -17 153 -17 q 129 -17 113 -1 q 97 16 97 39 z"},"/":{"x_min":0,"x_max":278,"ha":278,"o":"m 33 -93 l -22 -93 l 222 691 l 278 691 z"},"[":{"x_min":0,"x_max":359,"ha":359,"o":"m 106 -174 l 106 671 l 328 671 l 328 627 l 181 627 l 181 -130 l 328 -130 l 328 -174 z"},"6":{"x_min":0,"x_max":613,"ha":613,"o":"m 169 193 q 169 121 208 79 q 247 38 314 38 q 383 38 422 78 q 462 117 462 186 q 462 258 424 298 q 386 338 318 338 q 250 338 209 299 q 169 259 169 193 z m 457 542 q 432 559 405 567 q 378 575 348 575 q 260 575 212 510 q 164 444 162 321 q 203 360 247 379 q 292 398 341 398 q 438 398 502 341 q 566 283 566 196 q 566 99 498 41 q 430 -17 315 -17 q 196 -17 126 65 q 56 148 56 287 q 56 439 134 533 q 212 626 339 626 q 427 626 484 590 q 541 554 541 500 q 541 470 524 452 q 506 434 478 434 q 451 434 433 450 q 415 466 415 491 q 415 507 426 521 q 438 535 457 542 z"},"r":{"x_min":0,"x_max":481,"ha":481,"o":"m 209 106 q 209 70 221 60 q 234 49 273 49 l 322 49 l 322 0 l 30 0 l 30 49 l 58 49 q 98 49 110 60 q 123 71 123 106 l 123 366 q 123 402 110 413 q 97 424 58 424 l 30 424 l 30 472 l 209 472 l 209 374 q 235 431 271 459 q 307 487 353 487 q 403 487 435 457 q 467 426 467 381 q 467 350 450 330 q 433 310 406 310 q 382 310 366 325 q 350 340 350 361 q 350 383 364 397 q 377 411 399 411 l 405 411 q 394 426 380 433 q 367 440 349 440 q 290 440 249 377 q 209 315 209 218 z"},"2":{"x_min":0,"x_max":613,"ha":613,"o":"m 52 0 l 52 17 q 52 98 87 154 q 122 210 197 251 q 239 274 295 299 q 352 323 361 328 q 396 345 415 374 q 433 402 433 441 q 433 501 391 537 q 350 572 278 572 q 224 572 187 551 q 149 530 126 485 q 128 485 133 485 q 137 486 139 486 q 167 486 183 471 q 199 457 199 431 q 199 403 181 385 q 164 367 136 367 q 106 367 85 391 q 65 415 65 451 q 65 525 131 576 q 197 627 298 627 q 405 627 469 575 q 534 522 534 437 q 534 401 523 371 q 512 341 490 316 q 458 280 350 244 q 332 237 322 234 q 312 230 294 225 q 161 181 125 107 q 140 116 157 120 q 173 124 193 124 q 219 124 257 112 q 265 110 268 109 l 336 89 q 357 82 377 79 q 398 75 415 75 q 462 75 482 103 q 501 131 503 202 l 549 202 q 549 94 510 38 q 471 -19 398 -19 q 377 -19 354 -12 q 332 -6 303 9 l 252 36 q 250 37 245 40 q 195 67 162 67 q 130 67 115 51 q 101 35 100 0 z"},"{":{"x_min":0,"x_max":500,"ha":500,"o":"m 413 740 l 413 715 q 344 714 318 688 q 293 662 293 586 l 293 516 q 293 406 263 365 q 233 325 153 310 q 233 295 263 255 q 293 214 293 104 l 293 34 q 293 -42 318 -68 q 343 -93 413 -94 l 413 -119 l 408 -119 q 302 -119 263 -83 q 223 -47 223 50 l 223 154 q 223 231 194 260 q 166 290 86 296 l 86 325 q 167 333 195 361 q 223 390 223 467 l 223 571 q 223 668 263 704 q 302 740 408 740 z"},"9":{"x_min":0,"x_max":613,"ha":613,"o":"m 444 416 q 444 488 405 530 q 366 571 299 571 q 230 571 190 531 q 150 491 150 423 q 150 351 188 311 q 227 270 295 270 q 363 270 403 310 q 444 350 444 416 z m 156 66 q 182 50 209 42 q 236 34 265 34 q 353 34 400 99 q 448 165 450 288 q 409 249 365 230 q 320 211 271 211 q 174 211 110 269 q 46 326 46 413 q 46 510 114 568 q 183 626 298 626 q 417 626 487 544 q 557 461 557 322 q 557 170 479 77 q 400 -17 273 -17 q 185 -17 128 19 q 72 55 72 109 q 72 139 89 157 q 106 175 134 175 q 161 175 179 159 q 197 143 197 118 q 197 101 186 87 q 175 73 156 66 z"}," ":{"x_min":0,"x_max":306,"ha":306,"o":""},"I":{"x_min":0,"x_max":391,"ha":391,"o":"m 30 0 l 30 53 l 75 53 q 119 53 132 65 q 146 77 146 127 l 146 545 q 146 595 132 606 q 119 618 75 618 l 30 618 l 30 671 l 361 671 l 361 618 l 316 618 q 272 618 259 606 q 245 595 245 545 l 245 127 q 245 77 259 65 q 272 53 316 53 l 361 53 l 361 0 z"},"H":{"x_min":0,"x_max":833,"ha":833,"o":"m 28 0 l 28 53 l 69 53 q 112 53 126 65 q 140 77 140 127 l 140 545 q 140 595 126 606 q 113 618 69 618 l 28 618 l 28 671 l 358 671 l 358 618 l 308 618 q 264 618 250 606 q 237 595 237 545 l 237 366 l 596 366 l 596 545 q 596 595 583 606 q 569 618 525 618 l 476 618 l 476 671 l 806 671 l 806 618 l 764 618 q 720 618 707 606 q 693 595 693 545 l 693 127 q 693 77 707 65 q 721 53 764 53 l 806 53 l 806 0 l 476 0 l 476 53 l 525 53 q 568 53 582 65 q 596 77 596 127 l 596 313 l 237 313 l 237 127 q 237 77 251 65 q 265 53 308 53 l 358 53 l 358 0 z"},"4":{"x_min":0,"x_max":613,"ha":613,"o":"m 356 239 l 356 513 l 110 239 z m 222 0 l 222 51 l 284 51 q 330 51 343 62 q 356 72 356 106 l 356 181 l 29 181 l 29 232 l 385 626 l 444 626 l 444 239 l 573 239 l 573 181 l 444 181 l 444 111 q 444 73 458 62 q 472 51 517 51 l 573 51 l 573 0 z"},"~":{"x_min":0,"x_max":833,"ha":833,"o":"m 747 370 l 747 306 q 698 271 651 253 q 604 236 558 236 q 537 236 514 240 q 491 245 465 253 q 450 258 422 268 q 324 303 275 303 q 234 303 190 285 q 146 267 87 225 l 87 290 q 138 326 186 343 q 233 361 276 361 q 303 361 333 355 q 362 349 418 329 q 424 327 435 323 q 515 294 559 294 q 601 294 645 312 q 689 330 747 370 z"},"D":{"x_min":0,"x_max":792,"ha":792,"o":"m 237 618 l 237 53 l 352 53 q 505 53 574 123 q 644 192 644 345 q 644 485 573 552 q 502 618 353 618 z m 28 0 l 28 53 l 69 53 q 112 53 126 65 q 140 77 140 127 l 140 545 q 140 595 126 606 q 113 618 69 618 l 28 618 l 28 671 l 354 671 q 477 671 537 655 q 598 640 642 603 q 696 559 725 490 q 753 422 753 336 q 753 257 727 189 q 700 122 653 79 q 605 36 543 18 q 480 0 352 0 z"},"^":{"x_min":0,"x_max":1000,"ha":1000,"o":"m 456 714 l 543 714 l 797 438 l 752 438 l 499 651 l 245 438 l 201 438 z"},"0":{"x_min":0,"x_max":613,"ha":613,"o":"m 137 304 q 137 178 182 107 q 228 36 306 36 q 386 36 431 107 q 476 178 476 304 q 476 431 431 502 q 386 573 306 573 q 227 573 182 502 q 137 431 137 304 z m 34 304 q 34 447 110 537 q 186 626 306 626 q 427 626 503 536 q 579 447 579 304 q 579 161 503 72 q 427 -17 306 -17 q 187 -17 110 73 q 34 162 34 304 z"},"F":{"x_min":0,"x_max":683,"ha":683,"o":"m 28 0 l 28 53 l 69 53 q 112 53 126 65 q 140 77 140 127 l 140 545 q 140 595 126 606 q 113 618 69 618 l 28 618 l 28 671 l 642 671 l 642 404 l 590 404 l 590 416 q 590 535 551 577 q 512 618 397 618 l 237 618 l 237 379 l 291 379 q 361 379 380 403 q 398 426 398 508 l 449 508 l 449 179 l 398 179 q 396 273 375 300 q 354 326 290 326 l 237 326 l 237 127 q 237 77 251 65 q 265 53 308 53 l 358 53 l 358 0 z"},"`":{"x_min":0,"x_max":500,"ha":500,"o":"m 336 544 l 300 544 l 153 633 q 129 648 120 659 q 112 669 112 682 q 112 698 123 709 q 134 720 149 720 q 161 720 175 713 q 188 705 201 691 z"},"k":{"x_min":0,"x_max":638,"ha":638,"o":"m 199 230 l 373 368 q 389 381 396 390 q 403 399 403 408 q 403 416 391 419 q 380 423 350 423 l 304 423 l 304 472 l 599 472 l 599 423 l 584 423 q 550 423 525 413 q 500 404 470 380 l 344 278 l 511 94 q 532 71 557 60 q 582 49 610 49 l 625 49 l 625 0 l 339 0 l 339 49 l 365 49 q 393 49 407 54 q 422 59 422 68 q 422 73 419 79 q 416 84 410 90 l 282 229 l 199 166 l 199 106 q 199 71 212 60 q 225 49 264 49 l 286 49 l 286 0 l 26 0 l 26 49 l 53 49 q 92 49 105 60 q 117 70 117 106 l 117 566 q 117 602 105 612 q 92 623 53 623 l 26 623 l 26 671 l 199 671 z"},"u":{"x_min":0,"x_max":649,"ha":649,"o":"m 110 202 l 110 366 q 110 402 97 413 q 84 424 45 424 l 23 424 l 23 472 l 195 472 l 195 189 q 195 107 218 74 q 241 40 295 40 q 363 40 404 85 q 446 129 446 203 l 446 366 q 446 402 433 413 q 421 424 382 424 l 343 424 l 343 472 l 532 472 l 532 106 q 532 71 545 60 q 557 49 597 49 l 625 49 l 625 0 l 446 0 l 446 82 q 417 35 373 11 q 329 -13 272 -13 q 227 -13 194 1 q 161 16 139 46 q 124 67 117 99 q 110 131 110 202 z"},"]":{"x_min":0,"x_max":359,"ha":359,"o":"m 31 -174 l 31 -130 l 177 -130 l 177 627 l 31 627 l 31 671 l 252 671 l 252 -174 z"},"U":{"x_min":0,"x_max":766,"ha":766,"o":"m 131 545 q 131 595 117 606 q 104 618 60 618 l 28 618 l 28 671 l 349 671 l 349 618 l 299 618 q 255 618 242 606 q 228 595 228 545 l 228 210 q 228 126 269 86 q 310 47 396 47 q 488 47 529 93 q 570 139 570 245 l 570 545 q 570 595 556 606 q 543 618 499 618 l 450 618 l 450 671 l 738 671 l 738 618 l 708 618 q 664 618 651 606 q 637 595 637 545 l 637 245 q 637 111 574 46 q 510 -20 382 -20 q 260 -20 195 39 q 131 98 131 210 z"},"o":{"x_min":0,"x_max":580,"ha":580,"o":"m 128 236 q 128 139 170 86 q 212 34 290 34 q 368 34 410 86 q 452 139 452 236 q 452 333 410 386 q 368 439 290 439 q 212 439 170 386 q 128 333 128 236 z m 31 236 q 31 348 104 419 q 176 490 290 490 q 404 490 476 419 q 549 348 549 236 q 549 124 476 53 q 404 -17 290 -17 q 176 -17 103 53 q 31 124 31 236 z"},"N":{"x_min":0,"x_max":832,"ha":832,"o":"m 701 -3 l 616 -3 l 205 580 l 205 127 q 205 77 219 65 q 232 53 276 53 l 326 53 l 326 0 l 28 0 l 28 53 l 67 53 q 110 53 124 65 q 138 77 138 127 l 138 544 q 138 594 124 606 q 110 618 67 618 l 28 618 l 28 671 l 253 671 l 634 132 l 634 544 q 634 594 620 606 q 606 618 563 618 l 510 618 l 510 671 l 805 671 l 805 618 l 772 618 q 729 618 715 606 q 701 594 701 544 z"},"+":{"x_min":0,"x_max":833,"ha":833,"o":"m 388 596 l 446 596 l 446 327 l 709 327 l 709 270 l 446 270 l 446 0 l 388 0 l 388 270 l 124 270 l 124 327 l 388 327 z"},"G":{"x_min":0,"x_max":778,"ha":778,"o":"m 670 -7 l 616 -7 l 580 56 q 527 18 473 -1 q 420 -20 366 -20 q 216 -20 128 76 q 39 173 39 336 q 39 413 65 481 q 91 550 138 599 q 182 644 240 667 q 298 691 366 691 q 425 691 476 670 q 526 649 573 606 l 607 671 l 654 671 l 654 424 l 601 424 q 578 523 517 579 q 457 635 372 635 q 270 635 209 554 q 148 473 148 336 q 148 196 209 118 q 271 40 380 40 q 466 40 520 82 q 573 124 573 192 l 573 234 q 573 268 560 280 q 546 291 496 291 l 442 291 l 442 344 l 780 344 l 780 291 l 741 291 q 693 291 681 281 q 670 270 670 234 z"},"q":{"x_min":0,"x_max":616,"ha":616,"o":"m 421 233 q 421 323 380 376 q 339 429 269 429 q 205 429 169 378 q 134 328 134 236 q 134 143 169 93 q 205 42 269 42 q 338 42 379 94 q 421 146 421 233 z m 506 -109 q 506 -145 519 -156 q 532 -167 571 -167 l 594 -167 l 594 -215 l 324 -215 l 324 -167 l 356 -167 q 395 -167 408 -156 q 421 -145 421 -109 l 421 79 q 390 30 349 6 q 308 -17 253 -17 q 157 -17 97 53 q 37 123 37 236 q 37 349 96 418 q 155 487 251 487 q 306 487 348 463 q 391 439 421 391 l 421 472 l 594 472 l 594 424 l 571 424 q 532 424 519 413 q 506 402 506 366 z"},"d":{"x_min":0,"x_max":616,"ha":616,"o":"m 421 239 q 421 326 379 378 q 338 430 269 430 q 205 430 169 380 q 134 329 134 236 q 134 145 169 94 q 205 44 269 44 q 339 44 380 96 q 421 149 421 239 z m 421 566 q 421 601 408 612 q 396 623 356 623 l 324 623 l 324 671 l 506 671 l 506 106 q 506 71 519 60 q 531 49 571 49 l 596 49 l 596 0 l 421 0 l 421 82 q 390 33 348 9 q 306 -15 251 -15 q 155 -15 96 54 q 37 124 37 236 q 37 349 97 419 q 157 489 253 489 q 308 489 349 466 q 390 442 421 393 z"},"1":{"x_min":0,"x_max":613,"ha":613,"o":"m 128 0 l 128 51 l 177 51 q 243 51 259 62 q 275 73 275 121 l 275 473 l 132 473 l 132 522 q 214 525 255 549 q 296 573 313 626 l 365 626 l 365 120 q 365 75 380 63 q 396 51 457 51 l 503 51 l 503 0 z"},"5":{"x_min":0,"x_max":613,"ha":613,"o":"m 116 103 q 143 70 181 54 q 219 38 271 38 q 352 38 400 84 q 448 130 448 207 q 448 281 402 324 q 355 367 276 367 q 236 367 199 352 q 163 337 127 307 l 78 307 l 104 626 q 151 611 201 604 q 250 596 304 596 q 359 596 414 604 q 468 611 524 626 q 495 564 438 538 q 382 512 273 512 q 253 512 225 515 q 197 517 156 523 l 144 385 q 185 405 225 415 q 264 425 304 425 q 420 425 486 366 q 551 308 551 203 q 551 104 477 44 q 403 -17 282 -17 q 180 -17 114 29 q 47 75 47 143 q 47 177 67 198 q 86 220 117 220 q 146 220 164 203 q 182 186 182 160 q 182 134 166 120 q 149 105 116 103 z"}}}
